<?xml version="1.0" encoding="iso-8859-1"?>
<!-- Uploaded to: SVG Repo, www.svgrepo.com, Generator: SVG Repo Mixer Tools -->
<svg height="800px" width="800px" version="1.1" id="Layer_1" xmlns="http://www.w3.org/2000/svg" xmlns:xlink="http://www.w3.org/1999/xlink" 
	 viewBox="0 0 512 512" xml:space="preserve">
<path style="fill:#1E0478;" d="M512,89.749c0,26.079-11.202,49.595-29.034,66.013c14.726,32.609,22.202,67.415,22.202,103.648
	c0,139.275-113.309,252.584-252.584,252.584S0,398.685,0,259.41S113.309,6.826,252.584,6.826c36.233,0,71.039,7.476,103.648,22.202
	c16.405-17.832,39.934-29.022,66.013-29.022C471.738,0.006,512,40.256,512,89.749z M479.909,259.41
	c0-31.08-6.1-60.986-18.135-89.124c-11.935,5.885-25.347,9.207-39.529,9.207c-49.481,0-89.743-40.262-89.743-89.743
	c0-14.183,3.321-27.595,9.207-39.529c-28.138-12.036-58.044-18.136-89.124-18.136c-125.345,0-227.325,101.981-227.325,227.325
	s101.981,227.325,227.325,227.325S479.909,384.755,479.909,259.41z M486.742,89.749c0-35.564-28.933-64.485-64.497-64.485
	c-35.551,0-64.485,28.921-64.485,64.485c0,35.551,28.934,64.485,64.485,64.485C457.808,154.234,486.742,125.301,486.742,89.749z"/>
<path style="fill:#94E7EF;" d="M422.244,25.265c35.564,0,64.497,28.921,64.497,64.485c0,35.551-28.933,64.485-64.497,64.485
	c-35.551,0-64.485-28.933-64.485-64.485C357.76,54.186,386.693,25.265,422.244,25.265z M468.391,89.749
	c0-6.984-5.645-12.629-12.629-12.629h-67.036c-6.971,0-12.629,5.645-12.629,12.629c0,6.971,5.658,12.629,12.629,12.629h67.036
	C462.746,102.379,468.391,96.721,468.391,89.749z"/>
<g>
	<path style="fill:#1E0478;" d="M455.762,77.12c6.984,0,12.629,5.645,12.629,12.629c0,6.971-5.645,12.629-12.629,12.629h-67.036
		c-6.971,0-12.629-5.658-12.629-12.629c0-6.984,5.658-12.629,12.629-12.629C388.726,77.12,455.762,77.12,455.762,77.12z"/>
	<path style="fill:#1E0478;" d="M383.978,360.191v36.322c0,13.639-11.101,24.741-24.741,24.741h-213.32
		c-13.64,0-24.741-11.101-24.741-24.741v-36.322c0-30.07,23.983-54.621,53.813-55.581c0.278-0.025,31.27,1.276,40.009-31.409
		c-18.047-13.791-31.207-37.281-35.147-65.394c-0.682-0.846-1.263-1.793-1.705-2.854c-1.591-3.89-2.93-7.969-3.991-12.111
		c-10.533-41.297,9.068-83.024,43.684-93.027c3.372-0.972,6.896-1.629,10.482-1.958c9.737-4.711,20.03-7.098,30.638-7.098
		c41.31,0,74.916,36.107,74.916,80.498c0,11.53-2.223,22.657-6.605,33.088c-0.455,1.099-1.061,2.071-1.793,2.93
		c-2.526,18.653-9.194,35.905-19.411,49.746c-4.761,6.454-10.103,11.884-15.875,16.292c10.571,32.924,39.706,31.27,39.984,31.295
		C360.008,305.582,383.978,330.133,383.978,360.191z M361.245,396.512v-36.322c0-18.135-14.751-32.899-32.886-32.899
		c-0.265,0-13.084-0.328-22-4.357c-14.612,13.311-33.77,20.813-53.737,20.813s-39.138-7.514-53.75-20.838
		c-8.133,3.599-21.811,4.382-22.076,4.382c-18.136,0-32.886,14.764-32.886,32.899v36.322c0,1.111,0.897,2.008,2.008,2.008h213.32
		C360.349,398.52,361.245,397.624,361.245,396.512z M291.381,160.624c7.186,0,13.879,2.071,19.55,5.633
		c-2.299-29.514-24.715-52.765-51.969-52.765c-7.704,0-15.193,1.894-22.278,5.607c-1.478,0.783-3.107,1.225-4.774,1.301
		c-2.69,0.114-5.304,0.543-7.767,1.25c-20.75,5.999-32.987,30.613-29.578,57.097c5.127-6.832,8.941-14.625,11.101-22.922
		c1.427-5.494,6.188-9.421,11.846-9.775c5.633-0.366,10.836,2.917,12.932,8.158c0.707,1.743,1.869,3.258,3.397,4.395
		c1.768,1.313,3.877,2.021,6.113,2.021C239.955,160.624,291.381,160.624,291.381,160.624z M303.896,190.985
		c-2.349-4.521-7.072-7.628-12.516-7.628h-51.426c-6.592,0-12.882-1.907-18.3-5.532c-4.774,9.813-11.366,18.716-19.373,26.193
		c4.572,33.897,25.991,59.723,50.34,59.723c11.53,0,19.853-5.809,20.421-6.087C291.052,246.427,303.707,220.802,303.896,190.985z
		 M286.177,310.091c-7.514-7.11-13.299-16.052-16.595-26.117c-5.481,1.629-11.164,2.501-16.961,2.501
		c-5.847,0-11.556-0.884-17.024-2.538c-3.296,10.078-9.068,19.007-16.569,26.117c9.674,7.047,21.419,10.962,33.594,10.962
		C264.784,321.015,276.516,317.113,286.177,310.091z"/>
</g>
<g>
	<path style="fill:#6F7CCD;" d="M361.245,360.191v36.322c0,1.111-0.897,2.008-2.008,2.008h-213.32c-1.111,0-2.008-0.897-2.008-2.008
		v-36.322c0-18.135,14.751-32.899,32.886-32.899c0.265,0,13.943-0.783,22.076-4.382c14.612,13.324,33.783,20.838,53.75,20.838
		s39.125-7.502,53.737-20.813c8.916,4.029,21.735,4.357,22,4.357C346.494,327.292,361.245,342.055,361.245,360.191z"/>
	<path style="fill:#6F7CCD;" d="M310.931,166.257c-5.671-3.561-12.364-5.633-19.55-5.633h-51.426c-2.235,0-4.344-0.707-6.113-2.021
		c-1.528-1.137-2.69-2.652-3.397-4.395c-2.096-5.241-7.3-8.525-12.932-8.158c-5.658,0.354-10.419,4.281-11.846,9.775
		c-2.16,8.297-5.974,16.09-11.101,22.922c-3.41-26.483,8.828-51.098,29.578-57.097c2.463-0.707,5.077-1.137,7.767-1.25
		c1.667-0.076,3.296-0.518,4.774-1.301c7.085-3.713,14.574-5.607,22.278-5.607C286.215,113.492,308.632,136.743,310.931,166.257z"/>
</g>
<g>
	<path style="fill:#FFFFFF;" d="M291.381,183.357c5.443,0,10.167,3.107,12.516,7.628c-0.189,29.818-12.844,55.442-30.853,66.669
		c-0.568,0.278-8.891,6.087-20.421,6.087c-24.349,0-45.768-25.827-50.34-59.723c8.007-7.476,14.599-16.38,19.373-26.193
		c5.418,3.625,11.707,5.532,18.3,5.532L291.381,183.357L291.381,183.357z"/>
	<path style="fill:#FFFFFF;" d="M269.583,283.974c3.296,10.065,9.08,19.007,16.595,26.117c-9.661,7.022-21.394,10.924-33.556,10.924
		c-12.175,0-23.92-3.915-33.594-10.962c7.502-7.11,13.273-16.039,16.569-26.117c5.468,1.654,11.177,2.538,17.024,2.538
		C258.418,286.474,264.102,285.603,269.583,283.974z"/>
</g>
</svg>